<?xml version="1.0" encoding="utf-8"?>
<!-- Generator: Adobe Illustrator 27.9.3, SVG Export Plug-In . SVG Version: 9.03 Build 53313)  -->
<svg version="1.1"
	 id="svg2" xmlns:rdf="http://www.w3.org/1999/02/22-rdf-syntax-ns#" xmlns:svg="http://www.w3.org/2000/svg" xmlns:cc="http://creativecommons.org/ns#" xmlns:dc="http://purl.org/dc/elements/1.1/"
	 xmlns="http://www.w3.org/2000/svg" xmlns:xlink="http://www.w3.org/1999/xlink" x="0px" y="0px" viewBox="0 0 1000 666.7"
	 style="enable-background:new 0 0 1000 666.7;" xml:space="preserve">
<style type="text/css">
	.st0{fill:#E4CDED;}
	.st1{fill:url(#path36_00000045612156967934319680000005535338257459202991_);}
	.st2{fill:url(#path60_00000178172947268369368480000014571467098521574318_);}
	.st3{fill:url(#path84_00000158003665492027484100000002029222549144296368_);}
	.st4{fill:url(#path108_00000018194733683625270760000013969735104182604437_);}
	.st5{fill:url(#path132_00000113328688990903689950000001681024411508144041_);}
	.st6{fill:url(#path156_00000075130462436837028340000000747951114927313794_);}
	.st7{fill:url(#path180_00000163058948000406932430000015400113409555505818_);}
	.st8{fill:url(#path204_00000120559430198654510750000010613591922855090075_);}
	.st9{fill:url(#path228_00000146477847325080249370000002231125680431519669_);}
	.st10{fill:url(#path252_00000091000542796659390600000003502813259310350736_);}
	.st11{fill:url(#path276_00000181777011892128971250000015348137022360680066_);}
	.st12{fill:url(#path300_00000123404350194434749420000011919130875330413751_);}
	.st13{fill:url(#path324_00000001656249168758596780000016365857594443394443_);}
</style>
<g id="g10" transform="matrix(1.3333333,0,0,-1.3333333,0,666.66667)">
	<path id="path12" class="st0" d="M0,0h750v500H0V0z"/>
	<g id="g14">
		<g id="g16">
			<g id="g22">
				<g id="g24">
					
						<linearGradient id="path36_00000111164530022959388970000011849962045679454652_" gradientUnits="userSpaceOnUse" x1="-343.8392" y1="-155.6978" x2="-342.8392" y2="-155.6978" gradientTransform="matrix(533.3244 -632.722 -632.722 -533.3244 85092.8125 -300168.125)">
						<stop  offset="0" style="stop-color:#2C015A"/>
						<stop  offset="7.537690e-03" style="stop-color:#2C015A"/>
						<stop  offset="0.9607" style="stop-color:#A903AB"/>
						<stop  offset="1" style="stop-color:#A903AB"/>
					</linearGradient>
					<path id="path36" style="fill:url(#path36_00000111164530022959388970000011849962045679454652_);" d="M0,500V0h750
						c0,0,0,0,0,0l0,0v500H0z"/>
				</g>
			</g>
		</g>
	</g>
	<g id="g38">
		<g id="g40">
			<g id="g46">
				<g id="g48">
					
						<linearGradient id="path60_00000044890033050919386980000005337281809702870192_" gradientUnits="userSpaceOnUse" x1="-341.1321" y1="-156.9491" x2="-340.1321" y2="-156.9491" gradientTransform="matrix(70.2788 -83.377 -83.377 -70.2788 11261.2812 -38957.6328)">
						<stop  offset="0" style="stop-color:#FF6900"/>
						<stop  offset="0.8026" style="stop-color:#2C015A"/>
						<stop  offset="0.9925" style="stop-color:#2C015A"/>
						<stop  offset="1" style="stop-color:#2C015A"/>
					</linearGradient>
					<path id="path60" style="fill:url(#path60_00000044890033050919386980000005337281809702870192_);" d="M340.4,500
						c-0.1-1.4-0.1-2.8-0.1-4.2l0,0c0-31.8,25.2-57.6,56.2-57.6l0,0c31,0,56.2,25.8,56.2,57.6l0,0c0,1.4,0,2.8-0.1,4.2l0,0H340.4z"
						/>
				</g>
			</g>
		</g>
	</g>
	<g id="g62">
		<g id="g64">
			<g id="g70">
				<g id="g72">
					
						<linearGradient id="path84_00000072993164182528920850000011354589837303968177_" gradientUnits="userSpaceOnUse" x1="-339.7986" y1="-157.5956" x2="-338.7986" y2="-157.5956" gradientTransform="matrix(49.2261 -58.4006 -58.4006 -49.2261 7903.499 -27092.6816)">
						<stop  offset="0" style="stop-color:#2C015A"/>
						<stop  offset="7.537690e-03" style="stop-color:#2C015A"/>
						<stop  offset="0.1974" style="stop-color:#2C015A"/>
						<stop  offset="1" style="stop-color:#D08700"/>
					</linearGradient>
					<path id="path84" style="fill:url(#path84_00000072993164182528920850000011354589837303968177_);" d="M357.3,500
						c-0.1-1.4-0.2-2.8-0.2-4.2l0,0c0-22.3,17.6-40.4,39.3-40.4l0,0c21.7,0,39.3,18.1,39.3,40.4l0,0c0,1.4-0.1,2.8-0.2,4.2l0,0
						H357.3z"/>
				</g>
			</g>
		</g>
	</g>
	<g id="g86">
		<g id="g88">
			<g id="g94">
				<g id="g96">
					
						<linearGradient id="path108_00000103973695859055502930000011836266143295355539_" gradientUnits="userSpaceOnUse" x1="-341.5592" y1="-156.9129" x2="-340.5592" y2="-156.9129" gradientTransform="matrix(81.4342 -96.6114 -96.6114 -81.4342 12635.3721 -45380.4297)">
						<stop  offset="0" style="stop-color:#1DFF17"/>
						<stop  offset="0.8026" style="stop-color:#2C015A"/>
						<stop  offset="0.9925" style="stop-color:#2C015A"/>
						<stop  offset="1" style="stop-color:#2C005A"/>
					</linearGradient>
					<path id="path108" style="fill:url(#path108_00000103973695859055502930000011836266143295355539_);" d="M0,293.8
						c31.9,4.3,56.4,32.3,56.4,66.2l0,0c0,33.9-24.6,61.9-56.4,66.2l0,0V293.8z"/>
				</g>
			</g>
		</g>
	</g>
	<g id="g110">
		<g id="g112">
			<g id="g118">
				<g id="g120">
					
						<linearGradient id="path132_00000000184279808972172660000012930224512093762435_" gradientUnits="userSpaceOnUse" x1="-340.4084" y1="-157.4795" x2="-339.4084" y2="-157.4795" gradientTransform="matrix(57.0398 -67.6705 -67.6705 -57.0398 8744.6055 -31632.1367)">
						<stop  offset="0" style="stop-color:#2C005A"/>
						<stop  offset="7.537690e-03" style="stop-color:#2C015A"/>
						<stop  offset="0.1974" style="stop-color:#2C015A"/>
						<stop  offset="1" style="stop-color:#00A229"/>
					</linearGradient>
					<path id="path132" style="fill:url(#path132_00000000184279808972172660000012930224512093762435_);" d="M0,314.1
						c21,4.1,36.9,23.1,36.9,45.9l0,0C36.9,382.8,21,401.8,0,406l0,0V314.1z"/>
				</g>
			</g>
		</g>
	</g>
	<g id="g134">
		<g id="g136">
			<g id="g142">
				<g id="g144">
					
						<linearGradient id="path156_00000136384327798502327510000004266089383647900047_" gradientUnits="userSpaceOnUse" x1="-341.5592" y1="-156.8722" x2="-340.5592" y2="-156.8722" gradientTransform="matrix(81.4342 -96.6114 -96.6114 -81.4342 12817.2783 -45745.5703)">
						<stop  offset="0" style="stop-color:#FF6517"/>
						<stop  offset="0.8026" style="stop-color:#2C015A"/>
						<stop  offset="0.9925" style="stop-color:#2C015A"/>
						<stop  offset="1" style="stop-color:#2C015A"/>
					</linearGradient>
					<path id="path156" style="fill:url(#path156_00000136384327798502327510000004266089383647900047_);" d="M108.4,0h129.8
						c-2.5,34.5-30.6,61.7-64.9,61.7l0,0C139,61.7,110.9,34.5,108.4,0"/>
				</g>
			</g>
		</g>
	</g>
	<g id="g158">
		<g id="g160">
			<g id="g166">
				<g id="g168">
					
						<linearGradient id="path180_00000026857411453357958870000014456788318139660472_" gradientUnits="userSpaceOnUse" x1="-340.4084" y1="-157.4323" x2="-339.4084" y2="-157.4323" gradientTransform="matrix(57.0398 -67.6706 -67.6706 -57.0398 8926.5186 -31997.3027)">
						<stop  offset="0" style="stop-color:#52015A"/>
						<stop  offset="9.692317e-02" style="stop-color:#5C015A"/>
						<stop  offset="0.1974" style="stop-color:#77015A"/>
						<stop  offset="1" style="stop-color:#FF8C17"/>
					</linearGradient>
					<path id="path180" style="fill:url(#path180_00000026857411453357958870000014456788318139660472_);" d="M127.9,0h90.6
						c-2.5,23.4-21.8,41.7-45.3,41.7l0,0C149.8,41.7,130.4,23.4,127.9,0"/>
				</g>
			</g>
		</g>
	</g>
	<g id="g182">
		<g id="g184">
			<g id="g190">
				<g id="g192">
					
						<linearGradient id="path204_00000008119576176855628040000012474999423845461912_" gradientUnits="userSpaceOnUse" x1="-341.2125" y1="-156.962" x2="-340.2125" y2="-156.962" gradientTransform="matrix(72.1381 -85.5827 -85.5827 -72.1381 11586.751 -40403.0391)">
						<stop  offset="0" style="stop-color:#00B900"/>
						<stop  offset="0.8026" style="stop-color:#2C015A"/>
						<stop  offset="0.9925" style="stop-color:#2C015A"/>
						<stop  offset="1" style="stop-color:#2C015A"/>
					</linearGradient>
					<path id="path204" style="fill:url(#path204_00000008119576176855628040000012474999423845461912_);" d="M367.7,98.3
						c0-32.7,25.8-59.2,57.7-59.2l0,0c31.8,0,57.7,26.5,57.7,59.2l0,0c0,32.7-25.8,59.2-57.7,59.2l0,0
						C393.6,157.4,367.7,130.9,367.7,98.3"/>
				</g>
			</g>
		</g>
	</g>
	<g id="g206">
		<g id="g208">
			<g id="g214">
				<g id="g216">
					
						<linearGradient id="path228_00000173844534245188145470000011543107240105225349_" gradientUnits="userSpaceOnUse" x1="-340.2321" y1="-157.4339" x2="-339.2321" y2="-157.4339" gradientTransform="matrix(54.5374 -64.7017 -64.7017 -54.5374 8779.542 -30483.5703)">
						<stop  offset="0" style="stop-color:#2C005A"/>
						<stop  offset="7.537690e-03" style="stop-color:#2C015A"/>
						<stop  offset="0.1592" style="stop-color:#2C015A"/>
						<stop  offset="0.2756" style="stop-color:#2C015A"/>
						<stop  offset="1" style="stop-color:#0DA200"/>
					</linearGradient>
					<path id="path228" style="fill:url(#path228_00000173844534245188145470000011543107240105225349_);" d="M381.8,98.3
						c0-24.7,19.5-44.7,43.6-44.7l0,0c24.1,0,43.6,20,43.6,44.7l0,0c0,24.7-19.5,44.7-43.6,44.7l0,0C401.3,143,381.8,123,381.8,98.3
						"/>
				</g>
			</g>
		</g>
	</g>
	<g id="g230">
		<g id="g232">
			<g id="g238">
				<g id="g240">
					
						<linearGradient id="path252_00000003091028623247288120000002786463040048784300_" gradientUnits="userSpaceOnUse" x1="-339.0351" y1="-157.9367" x2="-338.0351" y2="-157.9367" gradientTransform="matrix(42.0186 -49.8497 -49.8497 -42.0186 7034.1309 -23024.5254)">
						<stop  offset="0" style="stop-color:#00125C"/>
						<stop  offset="0.8026" style="stop-color:#0049B9"/>
						<stop  offset="0.9925" style="stop-color:#2C015A"/>
						<stop  offset="1" style="stop-color:#2C015A"/>
					</linearGradient>
					<path id="path252" style="fill:url(#path252_00000003091028623247288120000002786463040048784300_);" d="M643.1,500
						c1-18.1,15.6-32.5,33.5-32.5l0,0c17.9,0,32.6,14.4,33.5,32.5l0,0H643.1z"/>
				</g>
			</g>
		</g>
	</g>
	<g id="g254">
		<g id="g256">
			<g id="g262">
				<g id="g264">
					
						<linearGradient id="path276_00000028287672526366077540000014733972416233116547_" gradientUnits="userSpaceOnUse" x1="-337.3521" y1="-158.7435" x2="-336.3521" y2="-158.7435" gradientTransform="matrix(31.7666 -37.6871 -37.6871 -31.7666 5399.0063 -17246.6992)">
						<stop  offset="0" style="stop-color:#000000"/>
						<stop  offset="7.537690e-03" style="stop-color:#2C015A"/>
						<stop  offset="0.1974" style="stop-color:#2C015A"/>
						<stop  offset="1" style="stop-color:#1793FF"/>
					</linearGradient>
					<path id="path276" style="fill:url(#path276_00000028287672526366077540000014733972416233116547_);" d="M651.3,500
						c1-13.5,11.9-24.1,25.3-24.1l0,0c13.4,0,24.4,10.6,25.3,24.1l0,0H651.3z"/>
				</g>
			</g>
		</g>
	</g>
	<g id="g278">
		<g id="g280">
			<g id="g286">
				<g id="g288">
					
						<linearGradient id="path300_00000042710139808970870710000005844409795401643176_" gradientUnits="userSpaceOnUse" x1="-342.8817" y1="-156.1586" x2="-341.8817" y2="-156.1586" gradientTransform="matrix(160.1416 -189.9877 -189.9877 -160.1416 25790.0273 -89850.2656)">
						<stop  offset="0" style="stop-color:#0071AB"/>
						<stop  offset="0.8026" style="stop-color:#2C015A"/>
						<stop  offset="0.9925" style="stop-color:#2C015A"/>
						<stop  offset="1" style="stop-color:#2C015A"/>
					</linearGradient>
					<path id="path300" style="fill:url(#path300_00000042710139808970870710000005844409795401643176_);" d="M464.6,248.3
						c0-72.5,57.3-131.3,128-131.3l0,0c70.7,0,128,58.8,128,131.3l0,0c0,72.5-57.3,131.3-128,131.3l0,0
						C522,379.6,464.6,320.8,464.6,248.3"/>
				</g>
			</g>
		</g>
	</g>
	<g id="g302">
		<g id="g304">
			<g id="g310">
				<g id="g312">
					
						<linearGradient id="path324_00000119108939349535603330000015491604464662069922_" gradientUnits="userSpaceOnUse" x1="-342.5615" y1="-156.3127" x2="-341.5615" y2="-156.3127" gradientTransform="matrix(129.7699 -153.9556 -153.9556 -129.7699 20945.9258 -72733.3125)">
						<stop  offset="1.261845e-02" style="stop-color:#2C015A"/>
						<stop  offset="0.1241" style="stop-color:#2C015A"/>
						<stop  offset="0.1425" style="stop-color:#2C015A"/>
						<stop  offset="0.9503" style="stop-color:#0058D0"/>
					</linearGradient>
					<path id="path324" style="fill:url(#path324_00000119108939349535603330000015491604464662069922_);" d="M488.9,248.3
						c0-58.8,46.4-106.4,103.7-106.4l0,0c57.3,0,103.7,47.6,103.7,106.4l0,0c0,58.8-46.4,106.4-103.7,106.4l0,0
						C535.4,354.7,488.9,307.1,488.9,248.3"/>
				</g>
			</g>
		</g>
	</g>
</g>
</svg>
