<?xml version="1.0" standalone="no"?>
<!DOCTYPE svg PUBLIC "-//W3C//DTD SVG 20010904//EN"
 "http://www.w3.org/TR/2001/REC-SVG-20010904/DTD/svg10.dtd">
<svg version="1.0" xmlns="http://www.w3.org/2000/svg"
 width="828.000000pt" height="476.000000pt" viewBox="0 0 828.000000 476.000000"
 preserveAspectRatio="xMidYMid meet">

<g transform="translate(0.000000,476.000000) scale(0.100000,-0.100000)"
fill="#000000" stroke="none">
<path d="M7565 4739 c-22 -5 -143 -25 -270 -44 -126 -20 -252 -40 -280 -45
-27 -6 -129 -21 -225 -35 -96 -14 -197 -30 -225 -35 -27 -6 -124 -21 -215 -35
-91 -14 -192 -30 -225 -35 -33 -5 -161 -26 -285 -46 -124 -19 -292 -47 -375
-60 -202 -34 -232 -39 -439 -69 -99 -14 -198 -30 -220 -35 -23 -5 -84 -15
-136 -24 -136 -21 -643 -102 -860 -137 -121 -20 -195 -36 -215 -49 -59 -37
-72 -77 -100 -311 -15 -118 -39 -317 -55 -444 -16 -126 -39 -311 -50 -410 -11
-99 -36 -304 -55 -455 -121 -952 -145 -1193 -124 -1215 4 -3 54 -9 113 -12 58
-3 106 -9 106 -13 0 -4 46 -10 103 -14 56 -4 134 -9 172 -11 361 -25 668 -44
705 -44 45 1 104 -2 375 -21 124 -8 278 -18 555 -35 47 -3 108 -8 135 -11 28
-2 149 -9 270 -14 121 -6 355 -19 520 -31 165 -11 408 -22 540 -24 249 -5 627
-22 658 -31 9 -3 17 -12 17 -21 0 -11 5 -9 19 8 53 69 62 117 81 419 6 102 22
352 35 555 14 204 29 447 35 540 5 94 12 188 15 210 2 22 7 101 10 175 3 74
10 191 15 260 13 164 26 371 45 665 8 132 25 371 36 532 20 285 21 293 2 329
-10 21 -29 46 -43 56 -30 22 -109 30 -165 17z m-1492 -494 c-3 -9 -8 -14 -10
-11 -3 3 -2 9 2 15 9 16 15 13 8 -4z m-378 -26 c-4 -5 -12 -9 -18 -8 -9 0 -8
2 1 6 6 2 9 10 6 15 -4 7 -2 8 5 4 6 -4 9 -12 6 -17z m-75 -9 c0 -11 -5 -20
-12 -20 -6 0 -8 3 -5 7 4 3 2 12 -4 20 -9 10 -8 13 5 13 9 0 16 -8 16 -20z
m337 9 c16 -16 -24 -53 -60 -54 -16 -1 -32 -7 -37 -14 -6 -10 -10 -10 -17 4
-9 16 -12 16 -40 1 -17 -8 -33 -13 -35 -11 -3 3 -13 -4 -23 -15 -24 -26 -55
-26 -55 0 0 23 28 40 69 40 16 0 32 4 35 9 3 5 28 14 56 21 28 7 53 16 56 21
7 12 38 11 51 -2z m-642 -66 c0 -47 10 -48 25 -3 17 51 27 51 32 0 4 -43 4
-42 -59 -55 -29 -6 -33 -4 -33 15 0 28 -29 38 -46 15 -13 -17 -14 -17 -14 -2
0 21 -42 23 -62 4 -7 -7 -21 -16 -31 -20 -12 -4 -16 -15 -15 -37 3 -29 -1 -33
-47 -51 -27 -10 -60 -19 -72 -19 -12 0 -25 -5 -28 -10 -5 -8 -11 -8 -20 0 -9
7 -16 6 -25 -5 -7 -8 -16 -13 -20 -10 -5 3 -12 1 -15 -5 -4 -6 10 -17 30 -26
34 -14 40 -14 71 1 19 9 50 18 71 21 20 2 42 9 50 15 14 12 95 31 127 31 10
-1 29 6 42 15 13 8 40 19 59 23 31 7 36 6 32 -8 -2 -10 -9 -16 -15 -14 -21 4
-25 -27 -8 -54 20 -29 13 -60 -14 -67 -28 -7 -25 -27 3 -24 19 2 22 -2 19 -28
-2 -16 -11 -41 -20 -55 -9 -14 -15 -31 -14 -37 2 -7 -2 -13 -8 -13 -6 0 -8 5
-5 10 3 6 1 10 -5 10 -6 0 -8 -10 -3 -27 8 -30 8 -71 0 -79 -8 -8 -37 8 -31
17 3 5 1 9 -5 9 -5 0 -19 -16 -31 -34 -15 -25 -26 -33 -37 -29 -10 4 -14 2
-10 -4 5 -7 -5 -10 -26 -9 -30 1 -32 -1 -29 -29 3 -24 1 -28 -9 -17 -16 15
-49 16 -49 1 0 -6 -7 -9 -15 -6 -17 7 -49 -31 -72 -83 -8 -19 -17 -30 -20 -23
-2 6 3 23 13 38 12 19 15 36 10 66 -7 45 -12 43 54 23 24 -8 63 32 77 78 8 30
13 33 43 30 35 -3 50 9 50 42 0 18 -1 18 -18 3 -10 -10 -33 -17 -51 -17 -23 0
-41 -9 -66 -34 -28 -28 -36 -32 -45 -20 -7 7 -17 12 -23 11 -6 -1 -12 12 -12
28 -1 17 -9 44 -18 62 -9 18 -17 38 -17 46 0 18 -70 93 -71 76 -1 -8 0 -25 1
-39 2 -21 0 -22 -14 -11 -9 7 -16 24 -16 37 0 30 -29 47 -53 29 -9 -6 -17 -18
-17 -24 0 -7 -4 -10 -10 -6 -5 3 -7 12 -3 20 3 8 1 15 -5 15 -5 0 -13 -11 -16
-25 -4 -14 -11 -23 -16 -20 -6 4 -7 11 -4 17 4 7 2 8 -4 4 -7 -4 -12 -14 -12
-22 0 -8 -7 -14 -15 -14 -8 0 -15 -3 -15 -7 -1 -5 -23 -32 -50 -62 -37 -41
-47 -48 -43 -30 12 50 165 221 178 199 3 -5 17 -5 34 1 15 6 34 9 42 7 11 -2
14 15 16 81 2 46 5 86 7 88 2 2 20 7 40 10 31 5 36 3 36 -14 0 -10 -6 -25 -12
-31 -10 -10 -10 -15 2 -22 10 -7 18 -5 26 5 6 8 16 15 23 15 6 0 14 13 17 29
5 24 12 30 43 35 73 12 75 9 32 -36 -23 -22 -41 -45 -41 -49 0 -5 -7 -6 -15
-3 -8 4 -15 2 -15 -4 0 -6 6 -13 13 -15 7 -3 5 -6 -5 -6 -19 -1 -26 -31 -7
-31 5 0 7 5 3 12 -5 7 -2 9 8 5 18 -6 62 36 73 71 3 12 10 22 14 22 4 0 18 10
31 23 23 21 112 46 155 43 15 -1 20 -8 20 -33z m265 17 c0 -5 -5 -10 -11 -10
-5 0 -7 5 -4 10 3 6 8 10 11 10 2 0 4 -4 4 -10z m82 -46 c-6 -29 -22 -44 -47
-44 -20 0 -23 -7 -33 -77 -11 -82 -9 -96 11 -71 6 9 23 18 37 20 14 3 30 7 35
9 6 2 10 0 10 -6 0 -5 -6 -9 -12 -9 -7 1 -13 -2 -13 -7 0 -5 -7 -6 -16 -2 -10
4 -17 -1 -21 -16 -3 -11 -9 -18 -14 -16 -4 3 -12 -3 -18 -12 -10 -17 -10 -17
-11 2 0 13 -8 5 -22 -24 -17 -34 -19 -47 -10 -62 10 -15 7 -18 -19 -24 -16 -4
-39 -17 -51 -28 l-21 -22 6 39 c4 21 15 49 27 61 24 26 29 55 5 35 -20 -17
-29 -7 -21 25 5 18 13 25 31 25 16 0 25 6 25 15 0 8 -7 15 -15 15 -9 0 -15 10
-15 26 0 14 4 23 9 20 5 -3 12 1 15 10 8 21 -4 65 -15 58 -5 -3 -9 4 -9 16 0
16 4 20 19 15 10 -3 24 1 31 10 7 8 20 13 29 10 9 -2 30 4 46 14 35 23 51 21
47 -5z m168 1 c0 -11 -29 -11 -33 -1 -4 10 1 12 14 9 10 -3 19 -7 19 -8z
m-1040 -12 c0 -5 -9 -19 -19 -32 -20 -26 -41 -21 -41 9 0 17 7 20 53 29 4 0 7
-2 7 -6z m879 -71 c-7 -10 -17 -19 -23 -19 -6 0 -20 -4 -31 -9 -18 -7 -19 -6
-5 10 13 17 44 34 63 35 4 1 2 -7 -4 -17z m-969 -18 c0 -8 -4 -14 -10 -14 -5
0 -10 9 -10 21 0 11 5 17 10 14 6 -3 10 -13 10 -21z m-502 -31 c0 -21 1 -48 1
-59 1 -27 37 -39 50 -17 7 13 14 14 37 6 16 -5 49 -9 74 -8 40 1 45 4 48 26 5
35 17 43 43 28 28 -15 58 -19 64 -8 3 4 17 2 31 -4 24 -11 25 -15 19 -57 -8
-52 -8 -125 0 -157 4 -19 1 -23 -20 -23 -14 0 -25 -4 -25 -10 0 -5 11 -10 25
-10 20 0 25 -5 25 -26 0 -14 -5 -35 -11 -46 -7 -12 -12 -50 -12 -85 0 -44 -4
-63 -13 -63 -7 0 -14 6 -17 13 -2 6 -3 -9 -2 -35 1 -27 -2 -48 -7 -48 -5 0 -8
-6 -7 -12 4 -37 -2 -68 -15 -68 -9 0 -12 7 -9 20 3 12 0 20 -7 20 -6 0 -14 -9
-17 -20 -8 -30 -25 -24 -21 8 2 17 8 26 17 24 22 -5 29 15 21 58 -6 33 -4 40
11 45 11 4 19 14 19 24 0 10 7 24 15 31 23 19 18 33 -10 28 -14 -3 -30 1 -37
9 -6 8 -17 12 -25 9 -7 -3 -23 4 -35 16 -19 19 -22 19 -30 4 -11 -20 -44 -21
-52 -1 -3 8 -1 27 4 41 13 34 14 32 -17 36 -25 3 -28 7 -28 43 0 29 -4 40 -15
40 -10 0 -15 -10 -15 -30 -1 -17 -4 -36 -9 -43 -5 -9 -3 -12 5 -11 8 2 24 -1
37 -5 20 -7 22 -12 16 -44 -9 -50 -34 -88 -45 -70 -5 7 -9 25 -9 40 0 15 -4
29 -9 32 -4 3 -11 25 -14 49 -3 23 -9 51 -13 60 -4 12 -1 17 11 17 9 0 13 5
10 10 -5 8 -11 8 -19 1 -16 -13 -26 -4 -26 23 0 12 -7 30 -15 40 -25 33 -16
196 10 196 8 0 13 -14 13 -37z m-73 -13 c3 -5 1 -10 -4 -10 -6 0 -11 5 -11 10
0 6 2 10 4 10 3 0 8 -4 11 -10z m-419 -103 c-14 -42 -30 -86 -36 -98 -7 -11
-13 -37 -15 -58 -2 -20 -5 -43 -9 -51 -3 -8 -7 -28 -9 -45 -2 -16 -6 -37 -9
-45 -3 -8 -11 -42 -18 -75 -21 -103 -42 -165 -56 -165 -16 0 -17 35 -3 100 5
25 12 77 14 115 6 95 12 115 42 143 14 13 22 26 18 30 -4 4 -10 1 -12 -5 -9
-24 -24 -13 -21 14 2 19 12 32 33 42 40 19 50 35 66 101 14 62 31 100 36 84 2
-6 -7 -45 -21 -87z m74 58 c0 -8 -4 -15 -10 -15 -5 0 -7 7 -4 15 4 8 8 15 10
15 2 0 4 -7 4 -15z m2074 -3 c3 -5 3 -18 0 -29 -6 -22 -50 -37 -60 -21 -3 5
-12 4 -20 -3 -8 -6 -17 -9 -20 -6 -12 12 5 34 38 50 37 19 54 21 62 9z m-1997
-44 c-16 -64 -27 -134 -36 -243 -5 -67 -14 -132 -20 -145 -5 -14 -12 -45 -16
-70 l-5 -45 -45 3 c-37 3 -43 6 -35 20 13 26 40 122 40 143 0 10 9 42 20 71
15 40 17 54 7 60 -8 5 -8 8 -1 8 15 0 45 85 68 193 4 15 11 27 17 27 7 0 9 -9
6 -22z m993 -70 c0 -14 -6 -29 -12 -31 -8 -4 -7 -6 3 -6 9 -1 22 6 29 14 10
12 17 9 45 -25 30 -36 33 -46 40 -132 6 -82 4 -102 -16 -158 -34 -101 -53
-132 -72 -117 -2 1 -11 -6 -21 -15 -23 -23 -39 -23 -60 1 -17 19 -17 20 3 31
25 13 28 30 5 30 -8 0 -12 5 -9 10 3 6 17 10 30 10 13 0 27 -4 30 -10 7 -12
26 -14 23 -2 -1 4 4 17 11 30 7 13 10 30 7 38 -3 8 -1 14 4 14 5 0 4 14 -2 33
-12 37 -28 58 -28 37 0 -7 -2 -11 -5 -8 -9 9 7 38 21 38 8 0 14 5 14 10 0 6 9
10 20 10 23 0 27 25 5 34 -20 7 -19 26 2 26 10 0 13 3 8 9 -16 14 -130 22
-143 9 -9 -9 -14 -5 -21 13 -11 29 -6 39 20 39 13 0 19 7 19 24 0 13 7 27 16
30 13 5 15 15 10 49 -6 40 -5 41 9 17 8 -14 14 -37 15 -52z m840 52 c0 -5 -8
-10 -17 -10 -15 0 -16 2 -3 10 19 12 20 12 20 0z m-1891 -10 c-6 -5 -18 -6
-26 -3 -19 8 -16 11 13 11 17 0 22 -3 13 -8z m236 1 c3 -5 0 -13 -6 -17 -7 -4
-9 -26 -5 -64 5 -45 3 -62 -9 -73 -17 -17 -20 -37 -6 -37 5 0 12 6 15 13 3 6
5 1 4 -13 -1 -14 8 -41 20 -60 12 -19 20 -41 17 -48 -3 -8 -5 -20 -5 -28 0 -8
-4 -14 -10 -14 -5 0 -10 9 -10 20 0 29 -55 29 -63 0 -6 -23 7 -34 29 -26 9 4
12 2 8 -5 -3 -6 -17 -8 -29 -5 -18 5 -23 2 -20 -12 2 -9 4 -20 4 -23 1 -4 15
-6 31 -5 31 1 54 22 43 40 -3 5 -1 6 4 3 6 -4 13 -21 17 -38 4 -24 10 -30 22
-25 24 9 42 -10 36 -40 -3 -18 -9 -23 -21 -19 -9 4 -36 9 -61 11 -25 3 -51 7
-58 9 -7 3 -47 0 -88 -6 -41 -7 -76 -10 -78 -8 -2 2 2 42 10 89 14 84 18 111
29 200 7 55 12 60 21 25 6 -23 10 -26 33 -21 24 6 25 5 8 -8 -12 -10 -15 -16
-7 -21 26 -16 90 83 90 141 0 57 18 91 35 65z m-45 -14 c0 -8 -3 -17 -7 -20
-4 -4 -14 -29 -23 -55 -12 -34 -22 -48 -38 -50 -12 -2 -22 1 -22 7 0 20 -2 26
-11 37 -6 8 -3 23 9 45 17 30 33 40 85 48 4 0 7 -5 7 -12z m1603 -4 c-4 -11
-8 -13 -11 -5 -2 7 -9 9 -14 6 -7 -4 -8 -2 -4 4 12 19 36 15 29 -5z m-1813
-18 c0 -8 -7 -15 -15 -15 -8 0 -15 7 -15 15 0 8 7 15 15 15 8 0 15 -7 15 -15z
m292 -5 c-2 -7 3 -20 11 -29 18 -20 31 -71 18 -71 -10 0 -24 38 -21 59 1 12
-1 13 -13 3 -12 -10 -16 -8 -21 13 -4 14 -4 30 0 36 8 14 30 5 26 -11z m1565
-52 c-3 -8 -6 -5 -6 6 -1 11 2 17 5 13 3 -3 4 -12 1 -19z m-1950 -60 c-3 -8
-6 -5 -6 6 -1 11 2 17 5 13 3 -3 4 -12 1 -19z m513 -38 c25 -49 25 -60 0 -60
-22 0 -23 -1 -14 -24 3 -8 12 -12 19 -10 17 7 25 -47 9 -61 -7 -6 -9 -26 -7
-46 4 -30 8 -36 24 -32 22 6 24 -5 5 -30 -9 -12 -16 -14 -21 -8 -3 6 -15 11
-26 11 -10 0 -19 3 -19 8 -1 4 -3 41 -6 82 -10 132 -8 210 6 210 5 0 19 -18
30 -40z m1380 10 c0 -5 -8 -10 -17 -10 -15 0 -16 2 -3 10 19 12 20 12 20 0z
m-766 -35 c-4 -8 1 -27 11 -41 12 -19 15 -36 10 -65 -5 -28 -3 -39 6 -39 7 0
10 -3 6 -6 -3 -4 0 -13 8 -21 8 -8 15 -20 15 -26 0 -8 -4 -7 -12 1 -7 7 -21
12 -32 12 -41 0 -50 15 -24 40 16 16 19 24 10 27 -26 10 -43 35 -37 57 13 44
28 76 36 76 5 0 6 -7 3 -15z m713 -10 c-4 -8 -11 -15 -17 -15 -7 0 -7 6 0 21
13 23 26 19 17 -6z m-237 -10 c0 -8 -4 -15 -10 -15 -5 0 -7 7 -4 15 4 8 8 15
10 15 2 0 4 -7 4 -15z m-884 -87 c0 -21 3 -40 5 -43 3 -2 3 -20 1 -39 -3 -25
-8 -33 -19 -29 -9 4 -16 -2 -20 -16 -6 -25 -7 -25 -36 -8 -12 6 -23 12 -25 13
-1 1 0 9 4 18 3 9 10 13 15 10 6 -3 7 4 4 18 -4 18 2 29 30 52 19 16 35 33 35
38 0 13 -28 9 -37 -5 -4 -7 -20 -17 -34 -24 -22 -9 -25 -16 -21 -47 5 -41 -13
-50 -27 -13 -25 65 -24 68 3 61 24 -6 26 -4 26 25 0 32 0 32 48 29 l47 -3 1
-37z m74 -13 c0 -26 -14 -31 -39 -16 -9 6 -11 18 -7 35 6 23 9 25 26 16 12 -6
20 -21 20 -35z m390 5 c6 -11 8 -20 6 -20 -3 0 -10 9 -16 20 -6 11 -8 20 -6
20 3 0 10 -9 16 -20z m290 -6 c0 -16 -23 -44 -35 -44 -15 0 -21 31 -8 43 8 8
43 9 43 1z m-1503 -26 c-3 -8 -6 -5 -6 6 -1 11 2 17 5 13 3 -3 4 -12 1 -19z
m1 -66 c-3 -30 0 -52 8 -59 6 -7 14 -10 17 -7 3 3 8 1 12 -5 4 -7 -5 -11 -24
-11 -16 0 -36 -3 -44 -6 -12 -4 -13 2 -5 43 5 26 12 58 14 71 2 12 9 22 15 22
8 0 10 -17 7 -48z m1512 13 c-7 -9 -15 -13 -18 -10 -3 2 1 11 8 20 7 9 15 13
18 10 3 -2 -1 -11 -8 -20z m-50 -16 c0 -20 -24 -26 -35 -9 -8 13 14 42 26 34
5 -3 9 -14 9 -25z m-673 -4 c0 -8 -4 -12 -9 -9 -5 3 -6 10 -3 15 9 13 12 11
12 -6z m-57 -54 c0 -5 -7 -11 -15 -15 -15 -5 -20 5 -8 17 9 10 23 9 23 -2z
m158 -8 c-5 -25 -28 -28 -28 -4 0 12 6 21 16 21 9 0 14 -7 12 -17z m642 13 c0
-3 -4 -8 -10 -11 -5 -3 -10 -1 -10 4 0 6 5 11 10 11 6 0 10 -2 10 -4z m-316
-93 c-8 -32 -14 -77 -14 -100 0 -23 -5 -45 -11 -48 -13 -9 -27 4 -14 13 6 4
11 39 12 79 2 69 14 113 32 113 5 0 2 -26 -5 -57z m-481 32 c-3 -9 -8 -14 -10
-11 -3 3 -2 9 2 15 9 16 15 13 8 -4z m1030 9 c16 -6 12 -44 -5 -44 -6 0 -8 -6
-5 -14 7 -18 -9 -32 -46 -41 -21 -6 -27 -4 -27 9 0 15 -33 40 -42 30 -3 -2 -3
6 -1 19 4 20 14 26 56 34 29 6 53 11 54 12 1 0 8 -2 16 -5z m181 -9 c3 -8 -2
-21 -10 -30 -9 -8 -12 -20 -8 -27 6 -9 3 -9 -9 1 -15 12 -17 11 -17 -2 0 -9 5
-19 10 -22 20 -12 -1 -23 -36 -20 -19 2 -37 5 -40 7 -8 9 21 58 38 64 9 3 19
13 22 22 7 22 42 26 50 7z m-1264 -5 c0 -5 -2 -10 -4 -10 -3 0 -8 5 -11 10 -3
6 -1 10 4 10 6 0 11 -4 11 -10z m-730 -20 c0 -11 -4 -20 -10 -20 -5 0 -10 9
-10 20 0 11 5 20 10 20 6 0 10 -9 10 -20z m1680 6 c0 -11 -19 -15 -25 -6 -3 5
1 10 9 10 9 0 16 -2 16 -4z m-458 -46 c-2 -17 -10 -30 -18 -30 -19 0 -18 19 3
42 21 23 20 23 15 -12z m359 -1 c5 -8 0 -18 -12 -27 -16 -11 -21 -11 -34 2 -9
8 -14 19 -13 23 2 4 -7 9 -19 11 -15 2 -23 -2 -23 -12 0 -8 -9 -18 -20 -21
-11 -3 -20 -13 -20 -21 0 -8 -4 -14 -10 -14 -5 0 -10 -4 -10 -10 0 -5 12 -10
26 -10 23 0 26 -3 22 -30 -3 -20 0 -30 9 -30 8 0 13 12 13 29 0 28 2 29 59 36
62 7 101 1 101 -16 0 -5 13 0 29 12 38 28 80 28 103 -1 57 -70 -35 -193 -109
-145 -23 15 -26 15 -44 -1 -14 -12 -40 -19 -84 -21 l-65 -3 0 30 c0 40 -13 38
-25 -2 -11 -37 -51 -49 -48 -14 1 10 4 49 8 85 7 73 12 66 -57 73 -28 3 -58
27 -58 48 0 9 -5 21 -11 27 -8 8 5 11 52 12 58 0 62 -2 45 -15 -18 -13 -15
-13 30 -8 56 6 64 11 44 25 -11 8 4 9 49 6 36 -3 67 -11 72 -18z m-598 -40
c-11 -23 -19 -28 -35 -23 -17 5 -19 3 -14 -14 5 -16 1 -22 -16 -27 -30 -9 -94
-40 -135 -66 -28 -18 -33 -19 -33 -5 0 9 7 16 16 16 8 0 12 5 9 10 -3 6 0 10
8 10 17 0 42 99 28 113 -11 11 -25 -16 -35 -65 -4 -16 -13 -28 -22 -28 -10 0
-14 -6 -10 -15 3 -8 1 -15 -4 -15 -6 0 -10 5 -10 12 0 6 -2 9 -5 6 -3 -3 -1
-18 5 -33 9 -25 9 -26 -5 -15 -8 7 -15 23 -15 35 0 18 -7 24 -30 27 -45 7 -56
-13 -17 -30 24 -12 28 -16 15 -19 -25 -6 -22 -21 4 -19 34 2 32 -20 -4 -42
-43 -27 -94 -81 -103 -109 -9 -31 -21 -29 -30 5 -7 25 -8 25 -15 7 l-9 -20 0
20 c-1 12 -4 16 -9 9 -12 -19 -76 -48 -80 -36 -2 6 -10 8 -18 5 -8 -3 -14 1
-14 11 0 9 -4 16 -10 16 -5 0 -10 -4 -10 -8 0 -5 -7 -9 -15 -9 -11 0 -15 11
-15 39 0 43 16 50 44 19 13 -15 14 -20 4 -24 -7 -3 -3 -6 9 -6 27 -1 39 15 17
23 -13 5 -14 9 -4 20 11 15 53 18 44 4 -2 -4 5 -12 16 -18 18 -10 27 -7 57 17
19 15 42 33 52 38 23 14 23 75 -1 75 -10 0 -18 7 -18 18 -1 15 -2 15 -15 -2
-8 -11 -15 -27 -15 -36 0 -19 -27 -34 -83 -49 -23 -6 -35 -6 -31 0 3 5 8 21
10 36 7 38 14 46 30 32 10 -8 11 -16 3 -30 -7 -14 -6 -19 4 -19 19 0 41 26 28
34 -13 8 -2 46 13 46 7 0 13 7 13 15 0 19 -5 19 -24 0 -13 -14 -18 -14 -36 -2
-12 7 -23 20 -26 28 -3 10 3 9 23 -4 30 -20 46 -15 46 12 0 13 -9 20 -32 24
-18 2 -35 2 -38 -2 -3 -3 -11 -6 -19 -6 -17 0 -44 -72 -38 -102 5 -28 -9 -31
-18 -4 -4 13 -12 17 -25 14 -11 -3 -27 0 -35 7 -8 6 -19 9 -25 5 -21 -13 -80
-16 -80 -3 0 6 -10 2 -23 -10 -24 -23 -40 -21 -30 4 7 19 -6 18 -29 -2 -25
-23 -46 -4 -40 36 3 23 1 30 -13 30 -13 0 -16 -7 -13 -29 3 -23 0 -31 -15 -35
-14 -3 -18 -12 -15 -38 3 -38 -24 -73 -57 -72 -89 4 -88 3 -72 124 l12 84 110
3 c61 1 139 6 175 11 36 5 99 7 140 5 41 -2 100 -4 130 -6 30 -1 67 1 81 4 15
4 92 10 170 14 79 4 145 8 146 9 1 0 33 0 71 -2 l70 -4 -15 -29z m507 -21 c0
-13 -23 -5 -28 10 -2 7 2 10 12 6 9 -3 16 -11 16 -16z m-233 -80 c-3 -8 -6 -5
-6 6 -1 11 2 17 5 13 3 -3 4 -12 1 -19z m9 -51 c26 -15 4 -35 -34 -30 -20 3
-39 7 -41 9 -2 1 10 14 25 28 19 15 30 20 33 13 2 -7 10 -15 17 -20z m-971 3
c-3 -5 -2 -10 4 -10 5 0 12 6 14 13 3 7 6 5 6 -5 1 -11 -6 -18 -16 -19 -11 0
-13 -3 -5 -6 6 -2 12 -9 12 -14 0 -4 -7 -6 -15 -3 -11 5 -15 -1 -15 -23 l0
-30 -82 2 c-46 0 -91 -4 -100 -9 -29 -18 -43 7 -22 39 11 18 19 22 24 14 4 -6
13 -8 20 -4 6 4 39 8 73 9 57 2 63 4 75 29 7 15 18 27 23 27 6 0 7 -4 4 -10z
m248 -46 c-3 -8 -12 -13 -20 -9 -11 3 -13 1 -9 -10 3 -8 1 -15 -4 -15 -17 0
-11 28 8 39 24 15 32 13 25 -5z m1237 -24 c0 -5 -7 -10 -16 -10 -8 0 -12 5 -9
10 3 6 10 10 16 10 5 0 9 -4 9 -10z m-1845 -36 c30 -25 30 -25 5 -22 -36 5
-64 23 -56 37 10 16 17 14 51 -15z m1535 16 c-18 -12 -60 -13 -60 -2 0 4 17 9
38 10 27 2 33 0 22 -8z m57 4 c-3 -3 -12 -4 -19 -1 -8 3 -5 6 6 6 11 1 17 -2
13 -5z m40 0 c-3 -3 -12 -4 -19 -1 -8 3 -5 6 6 6 11 1 17 -2 13 -5z m-417 -20
c0 -8 -4 -12 -10 -9 -5 3 -10 10 -10 16 0 5 5 9 10 9 6 0 10 -7 10 -16z m540
1 c17 -15 16 -75 -1 -75 -14 0 -23 24 -11 28 18 6 15 42 -4 42 -11 0 -14 -6
-9 -20 4 -12 2 -20 -5 -20 -17 0 -23 28 -8 44 16 19 18 19 38 1z m-1420 -21
c0 -8 -5 -12 -10 -9 -6 4 -8 11 -5 16 9 14 15 11 15 -7z m1490 -3 c14 -28 14
-59 -2 -43 -7 7 -17 8 -30 1 -19 -10 -23 -3 -9 20 5 8 14 10 22 6 11 -6 12 -5
2 6 -7 7 -13 17 -13 21 0 15 19 8 30 -11z m-325 -7 c-17 -13 -18 -16 -5 -24
13 -8 12 -10 -2 -10 -10 0 -18 -4 -18 -9 0 -5 8 -12 18 -14 10 -3 6 -5 -10 -6
-29 -1 -34 11 -22 57 5 16 14 22 33 22 25 -1 25 -1 6 -16z m56 7 c-13 -8 -13
-12 -1 -27 14 -15 15 -15 20 7 4 17 13 24 30 24 41 0 29 -28 -23 -54 -36 -19
-50 -22 -59 -13 -9 9 -6 12 12 12 l24 0 -22 16 c-18 13 -21 19 -11 30 6 8 19
14 28 14 13 0 14 -2 2 -9z m125 -17 c4 -16 12 -23 20 -20 8 3 14 1 14 -3 0 -5
-20 -9 -44 -9 -34 1 -43 4 -39 15 3 8 12 12 20 9 11 -4 13 -1 8 14 -4 11 -2
20 4 20 6 0 14 -12 17 -26z m-1518 -12 c-8 -9 -14 -9 -24 -1 -7 6 -18 8 -24 4
-5 -3 -10 -2 -10 4 0 5 15 9 34 8 26 -2 32 -5 24 -15z m-165 -51 c-4 -17 -8
-19 -14 -9 -7 10 -9 8 -9 -6 0 -16 -2 -15 -19 5 -11 13 -15 26 -10 27 5 2 7 7
4 12 -3 4 4 6 15 3 13 -3 20 0 20 8 1 10 3 10 10 -2 5 -8 6 -26 3 -38z m306
25 c-11 -9 -69 -14 -69 -6 0 6 17 10 37 10 20 0 34 -2 32 -4z m-372 -68 c-3
-7 -5 -2 -5 12 0 14 2 19 5 13 2 -7 2 -19 0 -25z m183 -2 c0 -3 -4 -8 -10 -11
-5 -3 -10 -1 -10 4 0 6 5 11 10 11 6 0 10 -2 10 -4z m85 -34 c-3 -3 -11 0 -18
7 -9 10 -8 11 6 5 10 -3 15 -9 12 -12z m1715 -47 c27 -33 -15 -90 -46 -64 -18
15 -18 29 2 57 18 26 27 27 44 7z m-230 -5 c25 13 36 8 55 -30 9 -18 11 -31 5
-35 -6 -3 -10 -1 -10 6 0 10 -3 10 -12 1 -17 -17 -47 -15 -54 3 -4 8 -10 15
-15 15 -4 0 -6 -6 -4 -12 3 -8 -4 -14 -21 -14 -18 -2 -24 2 -20 12 7 18 -4 18
-32 -2 -23 -16 -23 -16 -20 17 3 31 6 34 35 34 18 1 35 4 39 8 4 4 13 2 20 -4
9 -7 19 -7 34 1z m162 -2 c-7 -7 -12 -22 -12 -35 0 -13 -4 -23 -8 -23 -4 0 -8
16 -8 35 0 28 4 35 20 35 16 0 17 -3 8 -12z m-328 -12 c9 3 16 1 16 -5 0 -6
-4 -11 -10 -11 -5 0 -10 -9 -10 -19 0 -11 -4 -23 -10 -26 -5 -3 -10 3 -10 14
0 11 -4 23 -10 26 -5 3 -10 0 -10 -8 0 -8 -8 -21 -19 -31 -19 -17 -31 -11 -44
24 -4 11 -6 9 -6 -5 -1 -17 -8 -21 -36 -23 -34 -3 -35 -2 -29 25 8 34 24 54
24 30 0 -21 16 -22 24 -2 3 8 15 15 26 15 17 0 21 -5 18 -25 -4 -29 15 -39 20
-10 6 31 23 47 37 35 7 -6 20 -8 29 -4z m252 -3 c13 -17 13 -17 14 0 0 9 5 17
11 17 6 0 8 -7 5 -16 -3 -9 -6 -25 -6 -36 0 -19 -2 -19 -25 6 -24 26 -32 46
-19 46 4 0 13 -8 20 -17z m-105 -236 c18 3 29 1 29 -6 0 -7 -24 -11 -65 -11
-36 0 -65 4 -65 9 0 12 52 19 64 9 5 -4 22 -4 37 -1z m189 4 c0 -6 12 -6 32 0
41 11 40 11 36 -2 -5 -14 -148 -22 -148 -9 0 8 19 13 68 19 6 0 12 -3 12 -8z
m190 0 c0 -5 -21 -11 -47 -13 -52 -5 -58 -4 -50 9 7 11 97 16 97 4z m-537 -16
c1 -6 -35 -11 -90 -13 -57 -2 -93 1 -93 7 0 17 178 23 183 6z m237 5 c0 -5 -7
-10 -15 -10 -8 0 -15 5 -15 10 0 6 7 10 15 10 8 0 15 -4 15 -10z m-442 -12
c-4 -10 -36 -12 -104 -9 -8 1 -13 5 -10 10 8 13 118 12 114 -1z m292 -134 c0
-7 -32 -11 -95 -12 -84 0 -106 4 -91 19 10 10 186 3 186 -7z m48 -2 c6 -18
-15 -14 -22 4 -4 10 -1 14 6 12 6 -2 14 -10 16 -16z m142 7 c0 -11 -2 -11 -62
-13 -32 -1 -48 3 -48 11 0 7 19 12 55 12 30 0 55 -5 55 -10z m-225 -319 c5 0
24 14 42 32 18 18 33 27 33 22 0 -5 -17 -27 -39 -48 l-38 -37 -32 38 c-38 46
-41 70 -2 26 15 -18 31 -33 36 -33z"/>
<path d="M5274 3965 c-18 -14 -18 -14 3 -15 23 0 39 15 25 24 -5 3 -18 -1 -28
-9z"/>
<path d="M4995 3911 c-3 -2 0 -10 6 -18 9 -10 15 -10 25 -2 8 6 14 14 14 18 0
7 -38 9 -45 2z"/>
<path d="M5272 3829 c-14 -44 -13 -52 4 -41 16 12 34 82 20 82 -6 0 -17 -19
-24 -41z"/>
<path d="M5145 3850 c-4 -6 3 -10 14 -10 25 0 27 6 6 13 -8 4 -17 2 -20 -3z"/>
<path d="M5224 3843 c-3 -10 -10 -26 -15 -36 -5 -10 -7 -22 -4 -26 7 -13 47
-1 42 13 -2 6 2 23 10 39 13 25 12 27 -7 27 -11 0 -23 -8 -26 -17z"/>
<path d="M5045 3827 c-4 -10 -5 -21 -1 -24 10 -10 18 4 13 24 -4 17 -4 17 -12
0z"/>
<path d="M5097 3823 c-8 -10 -18 -30 -22 -45 -4 -15 -13 -32 -21 -39 -16 -13
-19 -29 -5 -29 7 0 64 87 79 123 7 14 -15 7 -31 -10z"/>
<path d="M4979 3781 c7 -11 17 -21 24 -21 8 0 8 3 -1 9 -8 4 -13 12 -12 17 1
5 -4 10 -10 12 -9 3 -9 -1 -1 -17z"/>
<path d="M5170 3780 c0 -5 5 -10 10 -10 6 0 10 5 10 10 0 6 -4 10 -10 10 -5 0
-10 -4 -10 -10z"/>
<path d="M5231 3742 c-10 -18 -9 -23 4 -28 22 -9 27 -1 17 27 l-9 23 -12 -22z"/>
<path d="M4200 3870 c0 -5 5 -10 10 -10 6 0 10 5 10 10 0 6 -4 10 -10 10 -5 0
-10 -4 -10 -10z"/>
<path d="M4260 3845 c0 -8 4 -15 9 -15 5 0 11 7 15 15 3 9 0 15 -9 15 -8 0
-15 -7 -15 -15z"/>
<path d="M4370 3821 c0 -10 30 -24 37 -17 3 3 2 9 -2 15 -8 13 -35 15 -35 2z"/>
<path d="M4265 3790 c3 -5 10 -10 16 -10 5 0 9 5 9 10 0 6 -7 10 -16 10 -8 0
-12 -4 -9 -10z"/>
<path d="M4380 3750 c0 -5 5 -10 11 -10 5 0 7 5 4 10 -3 6 -8 10 -11 10 -2 0
-4 -4 -4 -10z"/>
<path d="M4445 3739 c-4 -6 -5 -13 -2 -16 7 -7 27 6 27 18 0 12 -17 12 -25 -2z"/>
<path d="M4370 3480 c0 -24 15 -27 24 -4 9 22 8 24 -9 24 -8 0 -15 -9 -15 -20z"/>
<path d="M4986 3205 c-9 -25 -8 -27 17 -23 12 2 22 10 22 18 0 21 -31 24 -39
5z"/>
<path d="M5195 3129 c-10 -15 3 -25 16 -12 7 7 7 13 1 17 -6 3 -14 1 -17 -5z"/>
<path d="M5302 3074 c9 -9 21 -15 27 -13 6 2 -2 10 -17 17 -25 11 -25 11 -10
-4z"/>
<path d="M5180 3060 c0 -5 7 -10 15 -10 8 0 15 5 15 10 0 6 -7 10 -15 10 -8 0
-15 -4 -15 -10z"/>
<path d="M4517 3213 c-4 -3 -7 -11 -7 -17 0 -6 5 -5 12 2 6 6 9 14 7 17 -3 3
-9 2 -12 -2z"/>
<path d="M4447 3190 c3 -11 9 -20 14 -20 11 0 11 3 3 24 -9 23 -23 20 -17 -4z"/>
<path d="M4133 3185 c5 -12 37 -8 52 6 6 6 -2 9 -23 7 -18 -1 -31 -7 -29 -13z"/>
<path d="M3574 3106 c0 -19 4 -32 8 -30 4 3 8 18 8 35 0 16 -4 29 -8 29 -4 0
-8 -15 -8 -34z"/>
<path d="M4235 3050 c3 -5 11 -10 16 -10 6 0 7 5 4 10 -3 6 -11 10 -16 10 -6
0 -7 -4 -4 -10z"/>
<path d="M4200 2989 c0 -5 5 -7 10 -4 6 3 10 8 10 11 0 2 -4 4 -10 4 -5 0 -10
-5 -10 -11z"/>
<path d="M4075 2947 c-4 -10 -5 -21 -1 -24 10 -10 18 4 13 24 -4 17 -4 17 -12
0z"/>
<path d="M4165 2940 c-3 -5 -1 -10 4 -10 6 0 11 5 11 10 0 6 -2 10 -4 10 -3 0
-8 -4 -11 -10z"/>
<path d="M5140 2920 c0 -5 5 -10 10 -10 6 0 10 5 10 10 0 6 -4 10 -10 10 -5 0
-10 -4 -10 -10z"/>
<path d="M5421 2706 c-8 -10 -8 -16 3 -25 10 -9 16 -8 26 3 12 15 6 36 -9 36
-5 0 -14 -6 -20 -14z"/>
<path d="M5125 2700 c-3 -5 -1 -10 4 -10 6 0 11 5 11 10 0 6 -2 10 -4 10 -3 0
-8 -4 -11 -10z"/>
<path d="M5170 2700 c0 -5 7 -10 16 -10 8 0 12 5 9 10 -3 6 -10 10 -16 10 -5
0 -9 -4 -9 -10z"/>
<path d="M5225 2700 c-8 -13 14 -42 26 -34 5 3 9 14 9 25 0 20 -24 26 -35 9z"/>
<path d="M3155 1199 c-44 -4 -111 -10 -150 -13 -38 -4 -135 -13 -215 -21 -80
-9 -171 -16 -202 -16 -32 -1 -69 -8 -84 -15 -20 -11 -52 -12 -130 -8 -65 4
-104 3 -104 -3 0 -6 74 -15 168 -22 92 -6 222 -16 290 -21 67 -6 178 -14 247
-20 270 -22 376 -30 520 -40 83 -6 238 -17 345 -25 392 -30 718 -55 860 -65
80 -6 258 -19 395 -30 793 -62 669 -64 1145 15 223 37 407 69 409 71 16 15
-33 23 -159 28 -80 2 -152 7 -160 10 -8 3 -73 8 -145 11 -142 5 -432 21 -535
29 -105 8 -353 24 -380 24 -14 0 -99 5 -190 11 -91 7 -203 14 -250 16 -47 3
-114 7 -150 9 -36 3 -162 10 -280 16 -118 6 -222 12 -230 15 -8 2 -64 6 -125
9 -60 4 -146 8 -190 11 -44 3 -125 7 -180 10 -55 3 -154 10 -220 15 -132 10
-180 10 -300 -1z m-212 -116 c-7 -2 -19 -2 -25 0 -7 3 -2 5 12 5 14 0 19 -2
13 -5z"/>
<path d="M7441 951 c-10 -6 -10 -10 -1 -16 13 -8 24 -1 19 14 -3 6 -10 7 -18
2z"/>
<path d="M7298 900 c-2 -22 0 -40 4 -40 5 0 8 18 8 40 0 22 -2 40 -4 40 -2 0
-6 -18 -8 -40z"/>
<path d="M7264 890 c-1 -22 2 -40 7 -40 5 0 9 6 10 13 0 6 2 24 4 40 2 16 -1
27 -8 27 -7 0 -13 -16 -13 -40z"/>
<path d="M7360 915 c0 -8 2 -15 4 -15 2 0 6 7 10 15 3 8 1 15 -4 15 -6 0 -10
-7 -10 -15z"/>
<path d="M7203 880 c0 -25 2 -35 4 -22 2 12 2 32 0 45 -2 12 -4 2 -4 -23z"/>
<path d="M708 903 c7 -3 16 -2 19 1 4 3 -2 6 -13 5 -11 0 -14 -3 -6 -6z"/>
<path d="M7164 876 c1 -32 14 -62 17 -40 7 55 5 74 -6 74 -7 0 -11 -13 -11
-34z"/>
<path d="M755 891 c28 -12 162 -25 152 -14 -5 4 -18 9 -30 9 -12 1 -49 4 -82
8 -36 3 -52 2 -40 -3z"/>
<path d="M7075 892 c-16 -2 -34 -8 -40 -14 -7 -7 -2 -9 18 -4 37 9 35 -9 -3
-23 -21 -7 -30 -17 -30 -32 0 -20 4 -21 41 -16 51 7 56 13 49 57 -5 32 -8 35
-35 32z"/>
<path d="M923 873 c3 -5 23 -10 43 -11 47 -4 42 3 -9 12 -22 4 -37 3 -34 -1z"/>
<path d="M6936 854 c-10 -25 -7 -62 5 -70 26 -16 40 55 15 75 -11 9 -15 8 -20
-5z m20 -51 c-11 -11 -19 6 -11 24 8 17 8 17 12 0 3 -10 2 -21 -1 -24z"/>
<path d="M1535 795 c23 -8 85 -10 85 -3 0 4 -21 8 -47 7 -27 0 -43 -2 -38 -4z"/>
<path d="M1655 790 c-3 -5 -3 -10 2 -10 4 0 42 -3 83 -7 91 -7 91 2 0 12 -36
4 -68 9 -72 11 -4 2 -9 0 -13 -6z"/>
<path d="M1820 768 c0 -4 16 -8 35 -8 19 0 35 2 35 4 0 2 -16 6 -35 8 -19 2
-35 0 -35 -4z"/>
<path d="M2686 678 c3 -4 9 -8 15 -8 5 0 9 4 9 8 0 5 -7 9 -15 9 -8 0 -12 -4
-9 -9z"/>
<path d="M5035 440 c3 -5 8 -10 11 -10 2 0 4 5 4 10 0 6 -5 10 -11 10 -5 0 -7
-4 -4 -10z"/>
<path d="M5110 440 c58 -8 166 -13 159 -6 -2 2 -51 6 -109 9 -74 4 -89 3 -50
-3z"/>
</g>
</svg>
